<svg height="512" viewBox="0 0 64 64" width="512" xmlns="http://www.w3.org/2000/svg"><g id="Copyright-4" data-name="Copyright"><path d="m59 12h-6v-7a3 3 0 0 0 -3-3h-30a3 3 0 0 0 -3 3v11h-12a3 3 0 0 0 -3 3v40a3 3 0 0 0 3 3h30a3 3 0 0 0 3-3v-1h21a3 3 0 0 0 3-3v-40a3 3 0 0 0 -3-3zm-7 2h2v2.764l-.1-.211a1.042 1.042 0 0 0 -1.79 0l-.1.211zm-9-10h2v1.7l-.168-.252a1.039 1.039 0 0 0 -1.664 0l-.168.252zm-24 1a1 1 0 0 1 1-1h21v5a1 1 0 0 0 1.832.555l1.168-1.755 1.168 1.752a1 1 0 0 0 1.832-.552v-5h3a1 1 0 0 1 1 1v7h-22a3 3 0 0 0 -3 3v1h-7zm9 13h2v2.764l-.105-.211a1.042 1.042 0 0 0 -1.79 0l-.105.211zm7 42h-30a1 1 0 0 1 -1-1v-40a1 1 0 0 1 1-1h21v7a1 1 0 0 0 1.895.447l1.105-2.211 1.105 2.211a1 1 0 0 0 1.895-.447v-7h3a1 1 0 0 1 1 1v9.8l-1.594-.709a1 1 0 0 0 -.812 0l-9 4a1 1 0 0 0 -.594.909v5.939a13.006 13.006 0 0 0 6.687 11.361l2.828 1.571a1 1 0 0 0 .97 0l1.515-.838v7.967a1 1 0 0 1 -1 1zm1.343-11.445-2.343 1.301-2.342-1.3a11.007 11.007 0 0 1 -5.658-9.617v-5.289l8-3.556 8 3.556v5.289a11.007 11.007 0 0 1 -5.657 9.616zm23.657 6.445a1 1 0 0 1 -1 1h-21v-6.109a13.005 13.005 0 0 0 6-10.952v-5.939a1 1 0 0 0 -.594-.914l-5.406-2.402v-10.684a3 3 0 0 0 -3-3h-7v-1a1 1 0 0 1 1-1h21v7a1 1 0 0 0 1.9.447l1.1-2.211 1.1 2.211a1 1 0 0 0 1.9-.447v-7h3a1 1 0 0 1 1 1z"/><path d="m40 24h16v2h-16z"/><path d="m42 28h14v2h-14z"/><path d="m52 32h4v2h-4z"/><path d="m46 32h4v2h-4z"/><path d="m46 36h10v2h-10z"/><path d="m46 40h4v2h-4z"/><path d="m52 40h4v2h-4z"/><path d="m46 44h10v2h-10z"/><path d="m44 48h4v2h-4z"/><path d="m50 48h2v2h-2z"/><path d="m54 48h2v2h-2z"/><path d="m8 30h6v2h-6z"/><path d="m16 30h6v2h-6z"/><path d="m8 46h6v2h-6z"/><path d="m16 46h8v2h-8z"/><path d="m8 50h8v2h-8z"/><path d="m18 50h10v2h-10z"/><path d="m8 34h2v2h-2z"/><path d="m12 34h10v2h-10z"/><path d="m8 38h14v2h-14z"/><path d="m8 42h14v2h-14z"/><path d="m23 7h8v2h-8z"/><path d="m33 7h4v2h-4z"/><path d="m8 22h4v2h-4z"/><path d="m14 22h8v2h-8z"/><path d="m8 26h14v2h-14z"/><path d="m34 37a3 3 0 0 1 2.25 1.016l1.5-1.323a5 5 0 1 0 0 6.614l-1.5-1.323a3 3 0 1 1 -2.25-4.984z"/></g></svg>