<svg id="icons" enable-background="new 0 0 64 64" height="512" viewBox="0 0 64 64" width="512" xmlns="http://www.w3.org/2000/svg"><path d="m32.031 50.006h-.011c-.552 0-.994.447-.994 1s.452 1 1.005 1c.552 0 1-.447 1-1s-.448-1-1-1z"/><path d="m32.031 55.006h-.011c-.552 0-.994.447-.994 1s.452 1 1.005 1c.552 0 1-.447 1-1s-.448-1-1-1z"/><path d="m32.031 60h-.011c-.552 0-.994.447-.994 1s.452 1 1.005 1c.552 0 1-.447 1-1s-.448-1-1-1z"/><path d="m22.001 54.004v8.996c0 .553.447 1 1 1s1-.447 1-1v-8.996c0-.553-.447-1-1-1s-1 .447-1 1z"/><path d="m40.001 54.004v8.996c0 .553.447 1 1 1s1-.447 1-1v-8.996c0-.553-.447-1-1-1s-1 .447-1 1z"/><path d="m46.001 64c.553 0 1-.447 1-1v-13-.001c-.003-4.403-3.584-7.985-7.987-7.992-.004 0-.008-.003-.013-.003h-2v-1.354c2.983-1.732 5-4.955 5-8.646v-7c0-2.414-1.721-4.435-4-4.898v-3.102c0-.553-.447-1-1-1h-6c-4.963 0-9 4.037-9 9v7c0 3.691 2.017 6.914 5 8.646v1.355h-2c-4.409 0-7.997 3.585-8 7.993v.002 13c0 .553.447 1 1 1s1-.447 1-1v-12.996c0-3.308 2.691-5.998 6-5.998h2.588l1.705 1.705c.011.01.024.014.034.023.076.069.161.125.253.167.029.014.057.027.086.038.106.037.218.063.332.064h.002.001c.002 0 .003-.001.005-.001.14-.001.276-.037.406-.097.012-.005.024-.002.035-.008l1.553-.776 1.553.776c.011.006.023.003.035.008.13.06.267.096.406.097.002 0 .003.001.005.001h.001.002c.114-.001.226-.027.332-.064.029-.011.057-.024.086-.038.092-.042.177-.098.253-.168.01-.009.023-.013.034-.022l1.707-1.707h2.576c.003 0 .007.002.01.002 3.309 0 6 2.69 6 5.998v12.996c0 .553.447 1 1 1zm-15-45.996h5v3c0 .553.447 1 1 1 1.654 0 3 1.346 3 3v1.144l-1.44-.973c-.043-.028-.092-.035-.137-.057-.053-.025-.104-.051-.16-.066-.07-.019-.139-.025-.21-.029-.058-.003-.112-.006-.171 0-.07.009-.136.03-.203.053-.04.014-.082.013-.12.031-.019.01-1.881.897-5.059.897-3.277 0-6.156-.939-6.186-.949-.021-.007-.042-.002-.063-.008-.066-.018-.133-.021-.201-.024-.063-.003-.123-.008-.185 0-.062.009-.119.03-.179.051-.064.021-.127.042-.186.076-.02.012-.041.013-.061.025l-1.44.973v-1.144c.001-3.859 3.142-7 7.001-7zm-7 14v-3.443l2.166-1.462c1.013.289 3.505.905 6.334.905 2.659 0 4.513-.548 5.383-.872l2.117 1.429v3.443c0 4.411-3.589 8-8 8s-8-3.589-8-8zm8 10c1.045 0 2.053-.162 3-.461v1.047l-1.197 1.197-1.355-.678c-.022-.011-.046-.009-.068-.019-.063-.026-.128-.039-.195-.053-.062-.011-.121-.023-.184-.023-.062 0-.121.013-.184.024-.067.013-.131.025-.194.052-.022.009-.047.008-.069.019l-1.355.678-1.197-1.197v-1.047c.945.299 1.953.461 2.998.461z"/><path d="m39.001 7.001c0-3.859-3.14-7-6.999-7-3.86 0-7.001 3.141-7.001 7s3.141 7 7.001 7c3.859 0 6.999-3.141 6.999-7zm-12 0c0-2.757 2.243-5 5.001-5 2.757 0 4.999 2.243 4.999 5s-2.242 5-4.999 5c-2.758 0-5.001-2.243-5.001-5z"/><path d="m33.001 9.001v-1h1c.553 0 1-.447 1-1s-.447-1-1-1h-1v-1c0-.553-.447-1-1-1s-1 .447-1 1v1h-1c-.553 0-1 .447-1 1s.447 1 1 1h1v1c0 .553.447 1 1 1s1-.447 1-1z"/><path d="m57.995 50c.553 0 1-.447 1-1v-3-20-3c0-.553-.447-1-1-1s-1 .447-1 1v2h-3c-.553 0-1 .447-1 1v20c0 .553.447 1 1 1h3v2c0 .553.447 1 1 1zm-3-5v-18h2v18z"/><path d="m50.995 27h-.998c-.553 0-1 .447-1 1s.447 1 1 1h.998c.553 0 1-.447 1-1s-.447-1-1-1z"/><path d="m50.995 30.998h-3c-.553 0-1 .447-1 1s.447 1 1 1h3c.553 0 1-.447 1-1s-.447-1-1-1z"/><path d="m50.995 34.996h-5.002c-.553 0-1 .447-1 1s.447 1 1 1h5.002c.553 0 1-.447 1-1s-.447-1-1-1z"/><path d="m50.995 38.994h-3c-.553 0-1 .447-1 1s.447 1 1 1h3c.553 0 1-.447 1-1s-.447-1-1-1z"/><path d="m50.995 42.992h-.998c-.553 0-1 .447-1 1s.447 1 1 1h.998c.553 0 1-.447 1-1s-.447-1-1-1z"/><path d="m6.005 22c-.553 0-1 .447-1 1v3 20 3c0 .553.447 1 1 1s1-.447 1-1v-2h3c.553 0 1-.447 1-1v-20c0-.553-.447-1-1-1h-3v-2c0-.553-.447-1-1-1zm3 5v18h-2v-18z"/><path d="m13.005 29h.998c.553 0 1-.447 1-1s-.447-1-1-1h-.998c-.553 0-1 .447-1 1s.447 1 1 1z"/><path d="m13.005 32.998h3c.553 0 1-.447 1-1s-.447-1-1-1h-3c-.553 0-1 .447-1 1s.447 1 1 1z"/><path d="m13.005 36.996h5.002c.553 0 1-.447 1-1s-.447-1-1-1h-5.002c-.553 0-1 .447-1 1s.447 1 1 1z"/><path d="m17.005 39.994c0-.553-.447-1-1-1h-3c-.553 0-1 .447-1 1s.447 1 1 1h3c.553 0 1-.447 1-1z"/><path d="m13.005 42.992c-.553 0-1 .447-1 1s.447 1 1 1h.998c.553 0 1-.447 1-1s-.447-1-1-1z"/></svg>