<svg id="Слой_1" data-name="Слой 1" xmlns="http://www.w3.org/2000/svg" viewBox="0 0 1200 1200"><defs><style>.cls-1{fill:#fff;}.cls-2{fill:#7a00aa;}</style></defs><title>b_2</title><path class="cls-1" d="M821.25,571.65c-3.53-30.82-18.79-54.59-45.51-70.72-1.29-.78-2.69-1.39-3.73-1.93l-13.7-6.41a85.22,85.22,0,0,0-15.67-3.89c-8.61-1.25-7.5-.29-14.6-.3-4.4-.16-6.81-2.81-6.58-7.13.22-4.15,3-5.94,7-6.09,2.66-.1,2.53-.75,12.06,0,3.37.26,6.72.73,9.79,1.28a56.59,56.59,0,0,0-5.12-7.12c-21.91-26-69.37-44.44-105.28-23.7-4.21,2.43-8.1,5.42-12.12,8.18s-7.71,2.46-10.18-.76-1.68-7.08,2.13-10c4.55-3.45,6.18-4.09,11.34-7.7-7.53-5-15.82-6.79-24.19-8.06a145.49,145.49,0,0,0-44.29.28c-20.91,3.23-33,11.09-43.31,28.87-.79,1.35-1.39,2.81-2.11,4.2-2.37,4.54-6.13,6.25-9.69,4.17-4-2.37-4.61-5.9-2.48-9.87,2.62-4.89,3-5.48,5.66-10.31-37.87-2.88-90.24,32-99.72,69.73a68.85,68.85,0,0,0-3.86,22s1.07,10.13,2.59,16.69c1.7,5-.17,7.16-3.9,8.68-4,1.63-7.57-.38-9.46-5.61-1.23-3.41-1.22-5.8-1.61-9.81-14.41,15.8-19.49,34.94-15.79,56.85C382.8,626,392.81,645,413.26,657.35c1.37.83,2.82,1.52,4.06,2.13,0-.07,7,2.48,7,2.48a91.73,91.73,0,0,0,12.13,1.94,87.48,87.48,0,0,0,13.76-.55c4.15-.39,7.64,1.85,8.09,5.57.5,4.13-1.52,6.79-5.47,7.62-3.4.71-4.54.55-8,.65l-1.81,0c6.14,7.18,29.64,12.57,38.88,17.42,2.61,1.37,5.68,1.86,8.21,3.35,7.86,4.65,9.44,9.88,9.78,17.14.46,10,.88,13.81-2.9,26.63-.39,1.31-1,2.56-1.75,4.54,0,0,21.13,22.15,21.65,21.27,17-28.57,35.56-61.29,64.08-76.88l2.19-1.24s14.1-6.55,19.27-7.5c5-.92,12.69.79,19.91-.3,23.57-3.56,45.19-12.75,61.37-31.2a57.06,57.06,0,0,0,7.94-10.79c1.5-2.85,5.51-10,9.65-8.72,6.63,2.06,5.85,4.08,4.8,8a65.29,65.29,0,0,1-3.42,8.68c-1.12,2.75-4.76,7.08-5.25,7.8,30.14,1.76,59.18,1.86,86.31-11.5C810.18,630.87,824.84,603,821.25,571.65ZM562.62,427.57c-20.91,3.23-43,11.09-53.31,28.87-.79,1.35-1.39,2.81-2.11,4.2-2.37,4.54-6.13,6.25-9.69,4.17-4-2.37-4.61-5.9-2.48-9.87,2.62-4.89,3-5.48,5.66-10.31-37.87-2.88-90.24,32-99.72,69.73a68.85,68.85,0,0,0-3.86,22s1.07,10.13,2.59,16.69c1.7,5-.17,7.16-3.9,8.68-4,1.63-7.57-.38-9.46-5.61-1.23-3.41-1.22-5.8-1.61-9.81-14.41,15.8-19.49,34.94-15.79,56.85C372.8,626,382.81,645,403.26,657.35c1.37.83,2.82,1.52,4.06,2.13,0-.07,7,2.48,7,2.48a91.73,91.73,0,0,0,12.13,1.94,87.48,87.48,0,0,0,13.76-.55c4.15-.39,7.64,1.85,8.09,5.57.5,4.13-1.52,6.79-5.47,7.62-3.4.71-4.54.55-8,.65l-1.81,0c6.14,7.18,39.64,12.57,48.88,17.42"/><path class="cls-1" d="M600,277.65C422,277.65,277.65,422,277.65,600S422,922.35,600,922.35,922.35,778,922.35,600,778,277.65,600,277.65Zm.94,626.56c-168,0-304.22-136.2-304.22-304.22s136.2-304.22,304.22-304.22S905.16,432,905.16,600,769,904.22,600.94,904.22Z"/><path class="cls-1" d="M834,565.45c-5.21-30.31-19.68-55-45.48-72.07-9.28-6.13-18.17-11.83-22.26-22.7a4.22,4.22,0,0,0-.6-.85c-24.48-34.34-74.7-52.31-116.26-41.75a10.52,10.52,0,0,1-6.56-.75c-6.55-3.1-12.61-7.44-19.39-9.77-7.65-2.62-15.87-3.57-23.85-5.24H572.41c-1.68.3-3.35.68-5,.89-16.25,2-31.88,5.65-45.29,15.81a7.19,7.19,0,0,1-4.25,1.32c-29.81-.94-56.31,8.54-79.91,26.13-21.9,16.31-38.07,36.71-42.49,64.69a4.78,4.78,0,0,1-1.58,3c-12.63,8.33-19.09,21-24.08,34.56-2.51,6.79-5.65,21.05-5.65,21.05v15.7s3.12,19,6.22,27.89c9.1,26.23,26.23,44.8,53.53,52.89a8.17,8.17,0,0,1,3.89,3.06c10,14.07,38.42,23.86,54.43,30,4.45,1.7,6,4.1,6.13,8.57.26,11.06-.45,13.17-4.71,23.1-.69,1.6-3.84,8.34-3.84,8.34L520,787.66s2.52-4.81,3.64-6.79c16.56-29.22,37.08-63.69,65.61-79.75,7-4,13.77-6,21.55-5.72,27.42.91,51-9.25,72.75-25a12.11,12.11,0,0,1,7.49-2.06c27.79,2.34,55.44,2.51,82.4-5.89,34.32-10.68,54.94-33.58,60.68-69.39a16,16,0,0,1,1-2.83V569.33A36.27,36.27,0,0,1,834,565.45ZM783.72,643.9c-27.13,13.36-56.16,13.26-86.31,11.5.48-.72,4.13-5.05,5.25-7.8a65.27,65.27,0,0,0,3.42-8.68c1.05-3.88,1.83-5.9-4.8-8-4.14-1.29-8.15,5.87-9.65,8.72a57.06,57.06,0,0,1-7.94,10.79c-16.18,18.46-37.8,27.64-61.37,31.2-7.22,1.09-14.91-.62-19.91.3-5.17,1-19.27,7.5-19.27,7.5L581,690.71c-28.52,15.6-47.06,48.31-64.08,76.88-.52.88-21.65-21.27-21.65-21.27.76-2,1.36-3.23,1.75-4.54,3.78-12.82,3.35-16.68,2.9-26.63-.33-7.27-1.92-12.5-9.78-17.14-2.53-1.49-5.6-2-8.21-3.35-9.24-4.85-32.74-10.24-38.88-17.42l1.81,0c3.46-.1,4.61.06,8-.65,4-.83,6-3.49,5.47-7.62-.45-3.72-3.94-6-8.09-5.57a87.53,87.53,0,0,1-13.76.55A91.74,91.74,0,0,1,424.31,662s-7-2.55-7-2.48c-1.25-.61-2.69-1.3-4.06-2.13C392.8,645,382.79,626,378.92,603.11c-3.7-21.91,1.38-41.06,15.79-56.85.39,4,.38,6.4,1.61,9.81,1.89,5.24,5.47,7.24,9.46,5.61,3.74-1.52,5.61-3.65,3.9-8.68-1.52-6.56-2.59-16.69-2.59-16.69a68.85,68.85,0,0,1,3.86-22c9.49-37.75,61.85-72.61,99.72-69.73-2.7,4.83-3,5.42-5.66,10.31-2.13,4-1.57,7.5,2.48,9.87,3.56,2.09,7.32.37,9.69-4.17.73-1.39,1.33-2.85,2.11-4.2,10.36-17.77,22.4-25.63,43.31-28.87a145.5,145.5,0,0,1,44.29-.28c8.37,1.27,16.66,3.11,24.19,8.06-5.16,3.61-6.79,4.25-11.34,7.7-3.81,2.89-4.5,6.89-2.13,10s6.22,3.48,10.18.76,7.91-5.74,12.12-8.18c35.91-20.73,83.37-2.27,105.28,23.7a56.57,56.57,0,0,1,5.12,7.12c-3.07-.55-6.42-1-9.79-1.28-9.53-.73-9.41-.08-12.06,0-4,.15-6.8,1.95-7,6.09-.23,4.33,2.17,7,6.58,7.13,7.1,0,6-.95,14.6.3a85.21,85.21,0,0,1,15.67,3.89L772,499c1,.54,2.44,1.15,3.73,1.93,26.72,16.13,42,39.9,45.51,70.72C824.83,603,810.17,630.88,783.72,643.9Z"/><path class="cls-2" d="M544.63,623.09,566.37,579l15.55,27.5,15.15-39.74.53,0,18.23,94.68h.62l18-120.59.39-.05,15.88,78.89.58,0,15.48-64.17c2.79,4.29,5.26,8.07,7.71,11.86,2.71,4.18,5.46,8.33,8.07,12.55a3.56,3.56,0,0,0,3.56,1.8c9.76-.08,114.85,0,124.61,0V581c-9.14-.16-113.62-.39-122.76-.43-2.38,0-3.72-.55-4.82-2.44-5.14-8.77-10.5-17.46-15.79-26.18a5.29,5.29,0,0,0-1.78-1.91l-13.69,50.74h-.49L634.3,506.1l-.55,0L615.66,618h-.52l-15-79.51h-.59L580.5,588.42l-14.62-25.65L548.65,597.9l-.43-.07-18.5-129.38h-.58L509.7,629.21l-.35.05c-.91-3.76-1.84-7.52-2.74-11.28q-4.37-18.19-8.71-36.38c-.27-1.15-.6-1.74-2.27-1.74-49.05.26-51.83.46-100.88.67v.5c17.78,0-10.72,0,7.06,0,30.42.1,60.83.29,91.25.37,2.13,0,2.92.55,3.28,2.29q5.32,26,10.8,52a126.78,126.78,0,0,0,3.78,14.6L529.5,518l.29,0,14.1,105Z"/></svg>